<svg xmlns="http://www.w3.org/2000/svg" xmlns:xlink="http://www.w3.org/1999/xlink" viewBox="0 0 312.3 322.07"><defs><style>.cls-1{fill:#e74645;}.cls-2{fill:#1db2a8;}.cls-3{fill:#f9b233;}.cls-4{fill:#6ebebf;}.cls-5{fill:#f08046;}.cls-6{isolation:isolate;}.cls-10,.cls-13,.cls-16,.cls-7{mix-blend-mode:multiply;}.cls-8{clip-path:url(#clip-path);}.cls-9{fill:#f8bb94;}.cls-10,.cls-11{fill:#dadada;}.cls-12{fill:#fff;}.cls-13{fill:#c6c6c6;}.cls-14{fill:#0d3953;}.cls-15{fill:#031d2d;}.cls-16{fill:#b2b2b2;}.cls-17{fill:#956000;}.cls-18{clip-path:url(#clip-path-2);}.cls-19{fill:#1a7290;}.cls-20{fill:#054153;}.cls-21{fill:#732400;}.cls-22{fill:#511800;}.cls-23{clip-path:url(#clip-path-3);}.cls-24{fill:#373c47;}.cls-25{fill:#432918;}.cls-26{fill:#2a1807;}.cls-27{clip-path:url(#clip-path-4);}.cls-28{clip-path:url(#clip-path-5);}.cls-29{fill:#00b1c3;}.cls-30{clip-path:url(#clip-path-6);}.cls-31{fill:#881719;}</style><clipPath id="clip-path"><path class="cls-1" d="M157.66,75.39A59.06,59.06,0,1,1,98.6,16.33,59.06,59.06,0,0,1,157.66,75.39Z"/></clipPath><clipPath id="clip-path-2"><circle class="cls-2" cx="253.24" cy="182.94" r="59.06" transform="translate(-8.8 12.84) rotate(-2.86)"/></clipPath><clipPath id="clip-path-3"><path class="cls-3" d="M211.65,159.9a59.06,59.06,0,1,1-59.05-59.05A59.06,59.06,0,0,1,211.65,159.9Z"/></clipPath><clipPath id="clip-path-4"><path class="cls-4" d="M118.11,182.94a59.06,59.06,0,1,1-59.06-59.06A59.06,59.06,0,0,1,118.11,182.94Z"/></clipPath><clipPath id="clip-path-5"><circle class="cls-5" cx="208.33" cy="75.39" r="59.06"/></clipPath><clipPath id="clip-path-6"><path class="cls-1" d="M211.65,263A59.06,59.06,0,1,1,152.6,204,59.06,59.06,0,0,1,211.65,263Z"/></clipPath></defs><g class="cls-6"><g id="Layer_2" data-name="Layer 2"><g id="Capa_1" data-name="Capa 1"><g class="cls-7"><path class="cls-1" d="M157.66,75.39A59.06,59.06,0,1,1,98.6,16.33,59.06,59.06,0,0,1,157.66,75.39Z"/><g class="cls-8"><rect class="cls-9" x="94.02" y="103.03" width="11.62" height="6.91"/><path class="cls-10" d="M101.38,109c-2.44-.77-4.48-2.3-4.79-5a2.51,2.51,0,0,1,.1-1H94v6.91h11.62v-.87A7.79,7.79,0,0,1,101.38,109Z"/><path class="cls-9" d="M128.91,80.86a5.36,5.36,0,1,1-5.36-5.18A5.27,5.27,0,0,1,128.91,80.86Z"/><g class="cls-7"><path class="cls-11" d="M124.24,78a2,2,0,0,1,.36,0,3.09,3.09,0,0,1,1,.18,2.32,2.32,0,0,1,1.14.88,3.22,3.22,0,0,1,.2.37,2.77,2.77,0,0,1,.12.41l0,.44c0,.14,0,.28,0,.42a3.9,3.9,0,0,1-.17.81,3.62,3.62,0,0,1-.33.72,2.66,2.66,0,0,1-1,1,2.51,2.51,0,0,1-.51.21,2,2,0,0,1-.43.07h-.36l.33-.13c.11,0,.22-.12.35-.18a2.55,2.55,0,0,0,.39-.3,2.5,2.5,0,0,0,.38-.41,4,4,0,0,0,.32-.54,4.38,4.38,0,0,0,.22-.64,3.12,3.12,0,0,0,.13-.69l0-.33,0-.33c0-.1,0-.21-.07-.31s-.07-.19-.12-.28a2.34,2.34,0,0,0-.79-.83,4.69,4.69,0,0,0-.8-.41Z"/></g><path class="cls-10" d="M124.93,81.11a.87.87,0,1,1-.86-1A.94.94,0,0,1,124.93,81.11Z"/><path class="cls-9" d="M71.48,80.86a5.36,5.36,0,1,0,5.36-5.18A5.27,5.27,0,0,0,71.48,80.86Z"/><g class="cls-7"><path class="cls-11" d="M76.15,78a2,2,0,0,0-.36,0,3.14,3.14,0,0,0-1,.18A2.32,2.32,0,0,0,73.7,79a3.22,3.22,0,0,0-.2.37,2.77,2.77,0,0,0-.12.41l0,.44c0,.14,0,.28,0,.42a3.9,3.9,0,0,0,.17.81,3.13,3.13,0,0,0,.33.72,2.73,2.73,0,0,0,1,1,2.18,2.18,0,0,0,.52.21,1.83,1.83,0,0,0,.42.07h.36l-.33-.13c-.1,0-.22-.12-.35-.18a2.55,2.55,0,0,1-.39-.3,3,3,0,0,1-.38-.41,3.16,3.16,0,0,1-.31-.54,3.48,3.48,0,0,1-.23-.64,3.11,3.11,0,0,1-.12-.69l0-.33,0-.33c0-.1,0-.21.07-.31s.07-.19.12-.28a2.36,2.36,0,0,1,.8-.83,4.06,4.06,0,0,1,.8-.41Z"/></g><path class="cls-10" d="M75.46,81.11a.87.87,0,1,0,.87-1A.94.94,0,0,0,75.46,81.11Z"/><path class="cls-9" d="M123.55,74c0,17.57-8.24,29.91-23.72,29.91S76.1,91.61,76.1,74s8.56-31.82,24-31.82S123.55,56.47,123.55,74Z"/><path class="cls-9" d="M94.25,109.65s-14.73,1.95-20,6.53-7,8.71-8.94,17.94h69.1c-1.95-9.23-3.54-13.27-8.94-17.94s-20-6.53-20-6.53Z"/><path class="cls-12" d="M89.8,110.41s-10.28,1.19-15.58,5.77-7,8.71-8.94,17.94h69.1c-1.95-9.23-3.52-13.3-8.94-17.94-4.48-3.82-14.54-5.56-14.54-5.56l-5.5-1H94.25Z"/><path class="cls-1" d="M97.07,118.62a1,1,0,0,1,.19-.2l-.19.2-1.9,15.5h9.32l-1.9-15.5,1.29-5.32a2.39,2.39,0,0,0,.12-2.52,2.77,2.77,0,0,0-1.74-1.3,13.88,13.88,0,0,0-3.54-.12,3,3,0,0,0-2.73,1,2.32,2.32,0,0,0-.2,2.93Z"/><path class="cls-13" d="M96.86,117.8s3.86-1.81,5.72.82a6.16,6.16,0,0,0-5.52,0Z"/><path class="cls-14" d="M89.8,110.41s-10.28,1.19-15.58,5.77-7,8.71-8.94,17.94h69.1c-1.95-9.23-3.52-13.3-8.94-17.94-4.48-3.82-14.54-5.56-14.54-5.56L99.83,133.49Z"/><path class="cls-15" d="M89.94,110.57l9.89,22.92-10.52-6.8,2.37-4.06-11.76-9.71S86.59,110.33,89.94,110.57Z"/><path class="cls-15" d="M110.9,110.62,99.83,133.49l10.51-6.8L108,122.63l11.76-9.71S114.25,110.39,110.9,110.62Z"/><polygon class="cls-16" points="87.74 110.61 96.63 116.81 95.89 113.71 87.74 110.61"/><polygon class="cls-16" points="112.77 110.72 103.02 116.94 103.86 113.32 112.77 110.72"/><polygon class="cls-12" points="94.02 107.61 87.74 110.61 95.17 115.05 100.37 109.31 94.02 107.61"/><path class="cls-10" d="M93.93,109.81a4.53,4.53,0,0,1,3.29-1.35L94,107.6l-6.28,3L93.35,114A3.34,3.34,0,0,1,93.93,109.81Z"/><polygon class="cls-12" points="106.61 107.61 112.89 110.61 105.46 115.05 100.25 109.31 106.61 107.61"/><path class="cls-10" d="M106.7,109.81a4.55,4.55,0,0,0-3.29-1.35l3.2-.86,6.28,3L107.28,114A3.35,3.35,0,0,0,106.7,109.81Z"/><path class="cls-17" d="M76.18,78.32l2.4,2.4L79,61.37s.16-10,10.83-10a27.21,27.21,0,0,0,19.92.78s10-1.57,11.15,8.79l-.08,20.21L123.41,78l.14-2.63a78.26,78.26,0,0,0,0-21.05s-2-13.87-14.54-16.22c0,0-20.46-5.27-29.09,7.61A26.11,26.11,0,0,0,75.07,65.4Z"/></g></g><g class="cls-7"><circle class="cls-2" cx="253.24" cy="182.94" r="59.06" transform="translate(-8.8 12.84) rotate(-2.86)"/><g class="cls-18"><rect class="cls-9" x="247.43" y="210.91" width="11.62" height="6.91"/><path class="cls-13" d="M248.1,216.06a7.85,7.85,0,0,1,5.07-2.28c1.66-.13,4.5.23,5.38-1.5a2,2,0,0,1,.5-.64v-.73H247.43v6A6.25,6.25,0,0,1,248.1,216.06Z"/><path class="cls-9" d="M282.32,188.73a5.36,5.36,0,1,1-5.36-5.17A5.27,5.27,0,0,1,282.32,188.73Z"/><g class="cls-7"><path class="cls-11" d="M277.65,185.86a2.63,2.63,0,0,1,.36,0,3.1,3.1,0,0,1,.95.19,2.32,2.32,0,0,1,1.14.88,2.18,2.18,0,0,1,.2.37c.05.13.09.27.13.41l0,.43c0,.14,0,.28,0,.43a3.84,3.84,0,0,1-.18.8,3.2,3.2,0,0,1-.33.73,2.66,2.66,0,0,1-1,1,2.18,2.18,0,0,1-.52.21l-.41.07h-.37l.33-.13c.1,0,.22-.12.35-.18a2.55,2.55,0,0,0,.39-.3,2.22,2.22,0,0,0,.38-.42,3.5,3.5,0,0,0,.32-.54,3.89,3.89,0,0,0,.22-.63,3.12,3.12,0,0,0,.13-.69l0-.34,0-.32c0-.1,0-.21-.07-.31a2.06,2.06,0,0,0-.91-1.11,4.69,4.69,0,0,0-.8-.41A2.25,2.25,0,0,0,277.65,185.86Z"/></g><path class="cls-10" d="M278.35,189a.88.88,0,1,1-.87-1A.94.94,0,0,1,278.35,189Z"/><path class="cls-9" d="M224.89,188.73a5.36,5.36,0,1,0,5.36-5.17A5.27,5.27,0,0,0,224.89,188.73Z"/><g class="cls-7"><path class="cls-11" d="M229.56,185.86a2.63,2.63,0,0,0-.36,0,3.15,3.15,0,0,0-.95.19,2.32,2.32,0,0,0-1.14.88,3.22,3.22,0,0,0-.2.37,2.77,2.77,0,0,0-.12.41l0,.43c0,.14,0,.28,0,.43a3.81,3.81,0,0,0,.17.8,3.7,3.7,0,0,0,.33.73,2.73,2.73,0,0,0,1,1,2.36,2.36,0,0,0,.52.21l.42.07h.36l-.33-.13c-.1,0-.22-.12-.35-.18a3.15,3.15,0,0,1-.39-.3,2.61,2.61,0,0,1-.38-.42,3.5,3.5,0,0,1-.32-.54,3.89,3.89,0,0,1-.22-.63,3.11,3.11,0,0,1-.12-.69l0-.34,0-.32c0-.1.05-.21.07-.31s.07-.2.12-.28a2.36,2.36,0,0,1,.8-.83,4.32,4.32,0,0,1,.79-.41A2.25,2.25,0,0,1,229.56,185.86Z"/></g><path class="cls-10" d="M228.87,189a.87.87,0,1,0,.86-1A.94.94,0,0,0,228.87,189Z"/><path class="cls-9" d="M277,181.92c0,17.57-8.24,29.91-23.72,29.91s-23.72-12.34-23.72-29.91,8.56-31.82,24-31.82S277,164.34,277,181.92Z"/><path class="cls-9" d="M247.66,217.53s-14.73,1.95-20,6.53-7,8.71-8.94,17.94h69.1c-2-9.23-3.54-13.27-8.94-17.94s-20-6.53-20-6.53Z"/><path class="cls-19" d="M264.52,218.54s9,.94,14.33,5.52,7,8.71,8.94,17.94h-69.1c1.95-9.23,3.54-13.27,8.94-17.94S242,218.54,242,218.54s-2,12.6,11.74,12.49C253.74,231,265.05,231.47,264.52,218.54Z"/><line class="cls-19" x1="253.47" y1="242" x2="253.01" y2="242"/><path class="cls-20" d="M243.87,218.17a2,2,0,0,1,0,.65c0,.08-.63,4.57,1.94,7.54,1.63,1.88,4.31,2.82,7.92,2.79h.09a9.6,9.6,0,0,0,6.39-2.49c1.76-1.79,2.58-4.94,2.44-8.49l3.77.66c.12,4.49-1.08,8-3.56,10.51a13.28,13.28,0,0,1-9,3.58h-.29c-4.7,0-8.28-1.39-10.64-4.12-3.09-3.58-3-8.32-2.86-10Z"/><path class="cls-21" d="M228.87,172.25l.85,14.34,2.1.59C230,164,242.17,158.74,242.17,158.74l3.41-14.49a17,17,0,0,0-15,8.27S226.74,156.43,228.87,172.25Z"/><path class="cls-22" d="M229,174.11s-.4-1.81-.75-4.54c-.19-1.36-.36-2.95-.51-4.66-.06-.85-.16-1.73-.2-2.63,0-.45-.05-.9-.08-1.35l0-.34v-.43l0-.68a9.53,9.53,0,0,1,.17-1.44,8.17,8.17,0,0,1,.32-1.44c.06-.23.12-.46.19-.68l.26-.66A8.85,8.85,0,0,1,229,154a7.94,7.94,0,0,1,.64-1.15,11.88,11.88,0,0,1,.72-1,13.09,13.09,0,0,1,1.48-1.74,13.49,13.49,0,0,1,1.42-1.29,10.58,10.58,0,0,1,1.18-.87,10.13,10.13,0,0,1,1.1-.65,27.82,27.82,0,0,0-2.87,3.5c-.19.27-.39.56-.57.87s-.39.61-.57,1a9.78,9.78,0,0,0-.53,1,10,10,0,0,0-.5,1.1,8.74,8.74,0,0,0-.42,1.15,9.37,9.37,0,0,0-.34,1.21,7.55,7.55,0,0,0-.25,1.22,9.46,9.46,0,0,0-.12,1.27l0,.68v.26h0v0l0,.34c0,.46,0,.91,0,1.36,0,.9,0,1.78,0,2.64,0,1.71,0,3.31-.07,4.68C229.21,172.27,229,174.11,229,174.11Z"/><path class="cls-21" d="M277.43,175.06l-.85,14.34-2.1.59c2.13-30.88-9.38-31.39-9.38-31.39l-4.38-11.55a17,17,0,0,1,15,8.28S279.56,159.24,277.43,175.06Z"/><path class="cls-21" d="M242.33,158.64s13.33-5.23,27.06,1.78l1.05-10.59s-2.68-20.68-29.68-14.1a19.63,19.63,0,0,1,4.82,3.14s-10.39-.72-15,8.74c0,0,7-2.34,12.68-.83C243.28,146.78,234.8,152.37,242.33,158.64Z"/><path class="cls-22" d="M270.44,149.83a15.65,15.65,0,0,0-.52-1.52,24.79,24.79,0,0,0-1.85-3.74,27.41,27.41,0,0,0-1.58-2.24,23.63,23.63,0,0,0-2.09-2.18,18.58,18.58,0,0,0-2.59-1.9,17,17,0,0,0-3-1.45,14.71,14.71,0,0,0-1.58-.54,12.66,12.66,0,0,0-1.61-.41,26.24,26.24,0,0,0-3.22-.51c-.52-.07-1.05-.09-1.56-.11s-1-.07-1.51,0c-1,0-1.92,0-2.79,0s-1.66.11-2.37.17-1.33.11-1.83.17c-1,.12-1.61.16-1.61.16s.55-.2,1.53-.52a16.89,16.89,0,0,1,1.79-.52,22.28,22.28,0,0,1,2.37-.53c.43-.07.89-.17,1.37-.23l1.48-.16c.51-.07,1-.06,1.58-.09a11.51,11.51,0,0,1,1.66,0,16.76,16.76,0,0,1,1.72.12,13.6,13.6,0,0,1,1.76.26,20.75,20.75,0,0,1,3.5,1,18.51,18.51,0,0,1,3.26,1.66,17.31,17.31,0,0,1,7.5,11.5A9.94,9.94,0,0,1,270.44,149.83Z"/></g></g><g class="cls-7"><path class="cls-3" d="M211.65,159.9a59.06,59.06,0,1,1-59.05-59.05A59.06,59.06,0,0,1,211.65,159.9Z"/><g class="cls-23"><rect class="cls-9" x="146.79" y="187.87" width="11.62" height="6.91"/><path class="cls-13" d="M147.45,193a7.94,7.94,0,0,1,5.08-2.29c1.66-.12,4.49.24,5.38-1.49a1.72,1.72,0,0,1,.5-.64v-.73H146.79v6A7.09,7.09,0,0,1,147.45,193Z"/><path class="cls-9" d="M181.68,165.69a5.36,5.36,0,1,1-5.36-5.17A5.27,5.27,0,0,1,181.68,165.69Z"/><g class="cls-7"><path class="cls-11" d="M177,162.81h.36a3.15,3.15,0,0,1,.95.19,2.32,2.32,0,0,1,1.14.88,3.22,3.22,0,0,1,.2.37,2.77,2.77,0,0,1,.12.41l.05.43c0,.14,0,.28,0,.42a3.77,3.77,0,0,1-.17.81,3.7,3.7,0,0,1-.33.73,2.66,2.66,0,0,1-1,1,2.18,2.18,0,0,1-.52.21c-.16,0-.3.06-.42.07H177l.33-.13c.1,0,.22-.12.35-.18a3.15,3.15,0,0,0,.39-.3,2.61,2.61,0,0,0,.38-.42,2.82,2.82,0,0,0,.31-.54,3.86,3.86,0,0,0,.35-1.32l0-.34,0-.32c0-.1,0-.21-.07-.31s-.08-.2-.12-.28a2.26,2.26,0,0,0-.79-.83,4.39,4.39,0,0,0-.81-.41A3.16,3.16,0,0,0,177,162.81Z"/></g><path class="cls-10" d="M177.7,166a.88.88,0,1,1-.86-1A.94.94,0,0,1,177.7,166Z"/><path class="cls-9" d="M124.25,165.69a5.36,5.36,0,1,0,5.36-5.17A5.27,5.27,0,0,0,124.25,165.69Z"/><g class="cls-7"><path class="cls-11" d="M128.92,162.81h-.37a3.1,3.1,0,0,0-.94.19,2.32,2.32,0,0,0-1.14.88,3.22,3.22,0,0,0-.2.37c0,.13-.09.27-.13.41l0,.43c0,.14,0,.28,0,.42a3.77,3.77,0,0,0,.17.81,3.2,3.2,0,0,0,.33.73,2.66,2.66,0,0,0,1,1,2,2,0,0,0,.52.21l.41.07h.37l-.33-.13c-.1,0-.22-.12-.35-.18a2.55,2.55,0,0,1-.39-.3,2.22,2.22,0,0,1-.38-.42,2.82,2.82,0,0,1-.31-.54,3.92,3.92,0,0,1-.24-.63,3.11,3.11,0,0,1-.11-.69l0-.34,0-.32c0-.1,0-.21.07-.31s.07-.2.12-.28a2.26,2.26,0,0,1,.79-.83,4.69,4.69,0,0,1,.8-.41Z"/></g><path class="cls-10" d="M128.22,166a.88.88,0,1,0,.87-1A.94.94,0,0,0,128.22,166Z"/><path class="cls-9" d="M176.32,158.87c0,17.58-8.24,29.92-23.72,29.92s-23.73-12.34-23.73-29.92,8.56-31.81,24-31.81S176.32,141.3,176.32,158.87Z"/><path class="cls-9" d="M147,194.49s-14.73,1.94-20,6.53-7,8.71-8.94,17.94h69.09c-1.94-9.23-3.54-13.27-8.93-17.94s-20-6.53-20-6.53Z"/><path class="cls-24" d="M141.36,195.5s-9.07.93-14.37,5.52-7,8.71-8.94,17.94h69.09c-1.94-9.23-3.54-13.27-8.93-17.94s-14.33-5.52-14.33-5.52L152.6,206.72Z"/><path class="cls-25" d="M128.22,149.21l.86,14.34,2.1.59c-1.85-23.15,10.35-28.45,10.35-28.45l3.41-14.49a17,17,0,0,0-15,8.27S126.1,133.39,128.22,149.21Z"/><path class="cls-26" d="M128.34,151.07s-.44-1.81-.81-4.54c-.2-1.36-.38-2.95-.53-4.65-.07-.86-.17-1.74-.22-2.64,0-.44,0-.9-.08-1.35l0-.34v-.43l0-.69a8.75,8.75,0,0,1,.17-1.45,8.17,8.17,0,0,1,.32-1.44c.06-.23.12-.47.19-.69l.26-.66a12.1,12.1,0,0,1,.58-1.26,9,9,0,0,1,.65-1.15,10.11,10.11,0,0,1,.73-1,12.46,12.46,0,0,1,1.5-1.74,14.41,14.41,0,0,1,1.43-1.28,13,13,0,0,1,1.2-.86,9,9,0,0,1,1.11-.63,28.92,28.92,0,0,0-2.83,3.53c-.19.28-.38.57-.56.88s-.38.61-.56.94a9,9,0,0,0-.52,1c-.17.35-.35.71-.49,1.09a7.51,7.51,0,0,0-.42,1.15,11.81,11.81,0,0,0-.34,1.2,7.37,7.37,0,0,0-.23,1.21,6.83,6.83,0,0,0-.12,1.26l0,.68v.26h0v.33c0,.45,0,.9,0,1.35,0,.9,0,1.79,0,2.64,0,1.71,0,3.32-.1,4.69C128.6,149.23,128.34,151.07,128.34,151.07Z"/><path class="cls-13" d="M140.12,136.54s7.32,12.64,30.84,12c0,0-4.4-5.2-2.21-7.67C168.75,140.86,146,130,140.12,136.54Z"/><path class="cls-25" d="M176.79,152l-.86,14.34-2.09.59c1.84-23.15-10.35-28.44-10.35-28.44L160.08,124a17,17,0,0,1,15,8.27S178.91,136.2,176.79,152Z"/><path class="cls-25" d="M136.26,123.33s3.39-6.89,15.52-8.77c0,0,20.2-2.43,26.64,11.59,0,0,3.26,6.74,2.08,18.61,0,0-1.22-5.34-4.53-7.11,0,0-.56,6.31-9.28,2.43,0,0-1.38,2.59,1.66,7.2C168.35,147.28,140.12,147.28,136.26,123.33Z"/><path class="cls-26" d="M136.26,123.33a8.81,8.81,0,0,1,1.07-1.86,13.82,13.82,0,0,1,1.62-1.88c.33-.36.73-.67,1.13-1s.88-.69,1.37-1a20.15,20.15,0,0,1,3.36-1.87,25,25,0,0,1,4-1.44c.71-.22,1.46-.33,2.2-.5l.57-.12.63-.08c.39,0,.77-.06,1.16-.08a41.32,41.32,0,0,1,4.72,0,36.32,36.32,0,0,1,4.68.63,28.44,28.44,0,0,1,4.41,1.28,22.53,22.53,0,0,1,3.88,1.89,18,18,0,0,1,3.07,2.34,15.44,15.44,0,0,1,2.14,2.44,15.09,15.09,0,0,1,1.28,2.12,13.26,13.26,0,0,1,.63,1.46l.2.52-.3-.47c-.2-.31-.48-.76-.88-1.29a20.54,20.54,0,0,0-1.54-1.84c-.33-.33-.66-.68-1.06-1a14.68,14.68,0,0,0-1.24-1,21.31,21.31,0,0,0-3.06-1.9,27.25,27.25,0,0,0-3.72-1.52,33.75,33.75,0,0,0-4.19-1,38.18,38.18,0,0,0-4.44-.54,37.47,37.47,0,0,0-4.49-.09l-1.09,0-.49,0-.54.08c-.71.13-1.43.2-2.1.38a30.12,30.12,0,0,0-3.89,1.1l-.9.33-.84.36c-.57.22-1.08.51-1.58.76a22.36,22.36,0,0,0-2.61,1.64,18.93,18.93,0,0,0-1.82,1.55c-.47.48-.83.87-1,1.15A4,4,0,0,0,136.26,123.33Z"/></g></g><g class="cls-7"><path class="cls-4" d="M118.11,182.94a59.06,59.06,0,1,1-59.06-59.06A59.06,59.06,0,0,1,118.11,182.94Z"/><g class="cls-27"><path class="cls-25" d="M85.77,190.08s-7.64,25.83-21.14,27.45v-5.89S78.47,185.84,85.77,190.08Z"/><rect class="cls-9" x="53.25" y="210.91" width="11.62" height="6.91"/><path class="cls-13" d="M53.91,216.06A7.88,7.88,0,0,1,59,213.78c1.66-.13,4.49.23,5.37-1.5a2.07,2.07,0,0,1,.5-.64v-.73H53.25v6A6.16,6.16,0,0,1,53.91,216.06Z"/><path class="cls-9" d="M88.13,188.74a5.36,5.36,0,1,1-5.35-5.18A5.26,5.26,0,0,1,88.13,188.74Z"/><g class="cls-7"><path class="cls-11" d="M83.47,185.86a2.63,2.63,0,0,1,.36,0,3.57,3.57,0,0,1,1,.19,2.36,2.36,0,0,1,1.14.88,3.2,3.2,0,0,1,.19.37c0,.13.09.27.13.41l0,.43a3.1,3.1,0,0,1,0,.43,3.16,3.16,0,0,1-.16.8,3.7,3.7,0,0,1-.33.73,2.75,2.75,0,0,1-1,1,2.12,2.12,0,0,1-.51.21,2.81,2.81,0,0,1-.42.07h-.36l.33-.13c.1,0,.21-.12.35-.18a4.12,4.12,0,0,0,.39-.3,2.61,2.61,0,0,0,.38-.42,3.06,3.06,0,0,0,.31-.54,3.86,3.86,0,0,0,.35-1.32l0-.34,0-.32c0-.1,0-.21-.07-.31s-.07-.19-.11-.28a2.36,2.36,0,0,0-.8-.83,4.06,4.06,0,0,0-.8-.41A2.45,2.45,0,0,0,83.47,185.86Z"/></g><path class="cls-10" d="M84.16,189a.87.87,0,1,1-.87-1A.94.94,0,0,1,84.16,189Z"/><path class="cls-9" d="M30.71,188.74a5.36,5.36,0,1,0,5.35-5.18A5.26,5.26,0,0,0,30.71,188.74Z"/><g class="cls-7"><path class="cls-11" d="M35.38,185.86a2.89,2.89,0,0,0-.37,0,3.44,3.44,0,0,0-.94.19,2.32,2.32,0,0,0-1.14.88,3.25,3.25,0,0,0-.21.37l-.12.41,0,.43c0,.14,0,.29,0,.43a3.77,3.77,0,0,0,.5,1.53,2.75,2.75,0,0,0,1,1,2.12,2.12,0,0,0,.51.21,3,3,0,0,0,.42.07h.37l-.34-.13c-.1,0-.21-.12-.34-.18a2.14,2.14,0,0,1-.39-.3,1.93,1.93,0,0,1-.38-.42,2.2,2.2,0,0,1-.32-.54,3.9,3.9,0,0,1-.23-.63,3.11,3.11,0,0,1-.12-.69l0-.34,0-.32c0-.1.05-.21.07-.31s.07-.19.12-.28a2.26,2.26,0,0,1,.79-.83A4.06,4.06,0,0,1,35,186,2.25,2.25,0,0,1,35.38,185.86Z"/></g><path class="cls-10" d="M34.68,189a.88.88,0,1,0,.87-1A.94.94,0,0,0,34.68,189Z"/><path class="cls-9" d="M82.78,181.92c0,17.57-8.24,29.91-23.73,29.91s-23.72-12.34-23.72-29.91,8.56-31.82,24-31.82S82.78,164.34,82.78,181.92Z"/><path class="cls-9" d="M53.48,217.53s-14.74,1.95-20,6.53-7,8.71-8.94,17.94H93.6c-1.94-9.23-3.54-13.27-8.94-17.94s-20-6.53-20-6.53Z"/><path class="cls-1" d="M64.63,217.53a77.41,77.41,0,0,1,13.84,3.26s-3.69,8.93,0,21.21H40.41s2.63-7.49,1-21.81a81,81,0,0,1,12.06-2.66l5.34,10.39Z"/><path class="cls-25" d="M83.65,183.64c-8-2-11.88-11.9-11.88-11.9a11.65,11.65,0,0,0,.26,4.82,73.12,73.12,0,0,1-23.25-17.37c-7.36-9.09,4.47-15.06,4.47-15.06,19-6.7,27.13,6,27.13,6s13.47,12.19,6.84,35.74A5.77,5.77,0,0,0,83.65,183.64Z"/><path class="cls-25" d="M51,149.52S34,150.1,30.71,177c0,0-4.7,49.17,17.36,57.54,0,0-1.45-13.92,5.18-16.95v-6.38s-16.08-2.82-15.87-23.85c0,0,.1-24.27,12.45-28.87Z"/><path class="cls-12" d="M84.57,193.71a1.79,1.79,0,1,1-1.79-1.79A1.79,1.79,0,0,1,84.57,193.71Z"/></g></g><g class="cls-7"><circle class="cls-5" cx="208.33" cy="75.39" r="59.06"/><g class="cls-28"><rect class="cls-9" x="202.52" y="103.35" width="11.62" height="6.91"/><path class="cls-13" d="M203.19,108.51a7.91,7.91,0,0,1,5.07-2.29c1.66-.12,4.49.23,5.38-1.5a1.91,1.91,0,0,1,.5-.63v-.74H202.52v6A5.65,5.65,0,0,1,203.19,108.51Z"/><path class="cls-9" d="M237.41,81.18A5.36,5.36,0,1,1,232.05,76,5.26,5.26,0,0,1,237.41,81.18Z"/><g class="cls-7"><path class="cls-11" d="M232.74,78.3a2,2,0,0,1,.36,0,2.87,2.87,0,0,1,1,.19,2.35,2.35,0,0,1,1.14.87c.08.12.13.25.2.37s.09.28.13.42l0,.43c0,.14,0,.28,0,.42a3.77,3.77,0,0,1-.17.81,3.2,3.2,0,0,1-.33.73,2.63,2.63,0,0,1-1,1,2.44,2.44,0,0,1-.52.22l-.41.07h-.37l.33-.14c.1,0,.22-.12.35-.18a3.27,3.27,0,0,0,.39-.29,2.57,2.57,0,0,0,.38-.42,3.16,3.16,0,0,0,.31-.54,3.23,3.23,0,0,0,.23-.64,3,3,0,0,0,.12-.68l0-.34,0-.33c0-.1-.05-.21-.07-.3a2.52,2.52,0,0,0-.12-.29,2.42,2.42,0,0,0-.79-.83,5.57,5.57,0,0,0-.8-.41Z"/></g><path class="cls-10" d="M233.44,81.43a.88.88,0,1,1-.87-1A.95.95,0,0,1,233.44,81.43Z"/><path class="cls-9" d="M180,81.18A5.36,5.36,0,1,0,185.34,76,5.26,5.26,0,0,0,180,81.18Z"/><g class="cls-7"><path class="cls-11" d="M184.65,78.3a2,2,0,0,0-.36,0,2.87,2.87,0,0,0-.95.19,2.35,2.35,0,0,0-1.14.87c-.08.12-.13.25-.2.37a3.31,3.31,0,0,0-.12.42l0,.43c0,.14,0,.28,0,.42a3.77,3.77,0,0,0,.17.81,3.2,3.2,0,0,0,.33.73,2.77,2.77,0,0,0,1,1,2.44,2.44,0,0,0,.52.22c.16,0,.3.06.42.07h.36l-.33-.14c-.11,0-.22-.12-.35-.18a4.34,4.34,0,0,1-.39-.29,2.57,2.57,0,0,1-.38-.42,3.16,3.16,0,0,1-.31-.54,3.23,3.23,0,0,1-.23-.64,3,3,0,0,1-.12-.68l0-.34,0-.33c0-.1.05-.21.07-.3s.07-.2.12-.29a2.45,2.45,0,0,1,.8-.83,5.06,5.06,0,0,1,.79-.41Z"/></g><path class="cls-10" d="M184,81.43a.87.87,0,1,0,.86-1A.94.94,0,0,0,184,81.43Z"/><path class="cls-9" d="M232.05,74.36c0,17.57-8.25,29.91-23.72,29.91s-23.72-12.34-23.72-29.91,8.55-31.82,24-31.82S232.05,56.79,232.05,74.36Z"/><path class="cls-9" d="M202.75,110s-14.73,2-20,6.53-7,8.71-8.94,17.95h69.1c-1.95-9.24-3.55-13.27-8.94-17.95s-20-6.53-20-6.53Z"/><path class="cls-29" d="M194.92,111.47s1.59-.67-4.23,1.17c1.6,14.48-1,21.81-1,21.81h38.05c-3.69-12.28,0-21.21,0-21.21L224.22,112s-.32,17.64-16.12,16.42C208.1,128.38,194.4,129.72,194.92,111.47Z"/><path class="cls-21" d="M200.24,42s-17,.58-20.26,27.46c0,0-3.17,22.13,7.56,41a70.48,70.48,0,0,1,15-.43v-6.37s-16.07-2.83-15.86-23.86c0,0,.1-24.27,12.44-28.87Z"/><path class="cls-21" d="M216.42,42s19.28-.3,22.53,26.58c0,0,1.67,18-9.83,41.89a70.53,70.53,0,0,0-15-.43v-6.37S230.21,100.8,230,79.77c0,0-.1-24.27-12.45-28.87Z"/><path class="cls-21" d="M193.41,48.77a37.63,37.63,0,0,0,33.79,15.8L231.7,76l4.45,1.84s6.73-1.84-.27-29.08c0,0-7.23-19.91-33.36-14C202.52,34.79,189.5,37.16,193.41,48.77Z"/></g></g><g class="cls-7"><path class="cls-1" d="M211.65,263A59.06,59.06,0,1,1,152.6,204,59.06,59.06,0,0,1,211.65,263Z"/><g class="cls-30"><rect class="cls-9" x="146.79" y="290.97" width="11.61" height="6.91"/><path class="cls-13" d="M147.45,296.13a7.94,7.94,0,0,1,5.08-2.29c1.66-.12,4.49.23,5.38-1.5a1.77,1.77,0,0,1,.5-.63V291H146.79v6A7.09,7.09,0,0,1,147.45,296.13Z"/><path class="cls-9" d="M181.68,268.8a5.36,5.36,0,1,1-5.36-5.17A5.26,5.26,0,0,1,181.68,268.8Z"/><g class="cls-7"><path class="cls-11" d="M177,265.92h.36a3.15,3.15,0,0,1,.95.19,2.35,2.35,0,0,1,1.14.87c.08.12.13.25.2.38a2.77,2.77,0,0,1,.12.41l.05.43c0,.14,0,.28,0,.43a3.81,3.81,0,0,1-.17.8,3.7,3.7,0,0,1-.33.73,2.7,2.7,0,0,1-1,1,2.44,2.44,0,0,1-.52.22l-.42.07H177l.33-.14c.1,0,.22-.11.35-.18a3,3,0,0,0,.39-.29,3.13,3.13,0,0,0,.38-.42,2.82,2.82,0,0,0,.31-.54,3.14,3.14,0,0,0,.23-.63,3.22,3.22,0,0,0,.12-.69l0-.34,0-.32c0-.11,0-.21-.07-.31s-.07-.2-.12-.28a2.31,2.31,0,0,0-.8-.84,5.57,5.57,0,0,0-.8-.41Z"/></g><path class="cls-10" d="M177.7,269.06a.88.88,0,1,1-.87-1A.94.94,0,0,1,177.7,269.06Z"/><path class="cls-9" d="M124.25,268.8a5.36,5.36,0,1,0,5.36-5.17A5.26,5.26,0,0,0,124.25,268.8Z"/><g class="cls-7"><path class="cls-11" d="M128.91,265.92h-.36a3.16,3.16,0,0,0-.94.19,2.35,2.35,0,0,0-1.14.87c-.08.12-.13.25-.2.38s-.09.27-.13.41l0,.43c0,.14,0,.28,0,.43a3.81,3.81,0,0,0,.17.8,3.2,3.2,0,0,0,.33.73,2.56,2.56,0,0,0,1,1,2.07,2.07,0,0,0,.52.22l.41.07h.36l-.32-.14c-.1,0-.22-.11-.35-.18a2.46,2.46,0,0,1-.39-.29,2.57,2.57,0,0,1-.38-.42,3.5,3.5,0,0,1-.32-.54,5.16,5.16,0,0,1-.23-.63,2.69,2.69,0,0,1-.11-.69l0-.34,0-.32c0-.11,0-.21.07-.31a1.81,1.81,0,0,1,.12-.28,2.37,2.37,0,0,1,.79-.84,6.85,6.85,0,0,1,.8-.41Z"/></g><path class="cls-10" d="M128.22,269.06a.88.88,0,1,0,.87-1A.94.94,0,0,0,128.22,269.06Z"/><path class="cls-9" d="M176.32,262c0,17.58-8.24,29.92-23.72,29.92S128.87,279.56,128.87,262s8.56-31.81,24-31.81S176.32,244.41,176.32,262Z"/><path class="cls-9" d="M147,297.59s-14.73,2-20,6.54-7,8.71-8.94,17.94h69.09c-1.94-9.23-3.54-13.27-8.93-17.94s-20-6.54-20-6.54Z"/><path class="cls-31" d="M165.32,298.93c4.53,1.05,10.05,2.75,12.89,5.2,5.39,4.67,7,8.71,8.93,17.94H118.05c1.94-9.23,3.54-13.27,8.94-17.94,2.91-2.52,8.67-4.24,13.26-5.29l12.35,13.31Z"/><path class="cls-25" d="M144.51,229.59s-17,.58-20.26,27.45c0,0-.63,23.08-.63,50.38,0,0,3.89-6.82,23.17-9.79v-6.38s-16.08-2.83-15.87-23.85c0,0,.11-24.27,12.45-28.88Z"/><path class="cls-25" d="M160.69,229.59s19.31-1,22.56,25.9c0,0,.38,23.85-1.57,52.21,0,0-5.36-7.65-23.27-10.07v-6.38s16.07-2.83,15.86-23.85c0,0-.1-24.27-12.45-28.88Z"/><path class="cls-25" d="M150,255.49l2.39-12v12h11.92l2-8.48,2.05,8.48h14.94A77.66,77.66,0,0,0,181.68,240s-4-18.73-32-17.08c0,0-23.63,0-25.34,32.56Z"/></g></g><path class="cls-2" d="M144.82,8.17A8.17,8.17,0,1,1,136.65,0,8.17,8.17,0,0,1,144.82,8.17Z"/><path class="cls-1" d="M158.19,27.08a5.59,5.59,0,1,1-5.59-5.59A5.59,5.59,0,0,1,158.19,27.08Z"/><path class="cls-3" d="M179.26,9.78A9.78,9.78,0,1,1,169.48,0,9.78,9.78,0,0,1,179.26,9.78Z"/><path class="cls-2" d="M281.25,106.14a7.28,7.28,0,1,1-7.27,7.27A7.27,7.27,0,0,1,281.25,106.14Z"/><path class="cls-1" d="M298.09,94.23a5,5,0,1,1-5,5A5,5,0,0,1,298.09,94.23Z"/><path class="cls-3" d="M282.69,75.46A8.71,8.71,0,1,1,274,84.17,8.71,8.71,0,0,1,282.69,75.46Z"/><path class="cls-2" d="M16.87,111.09a7.28,7.28,0,1,1-9.81,3.09A7.27,7.27,0,0,1,16.87,111.09Z"/><path class="cls-1" d="M37.31,108.32a5,5,0,1,1-6.72,2.11A5,5,0,0,1,37.31,108.32Z"/><path class="cls-3" d="M32.33,84.55a8.71,8.71,0,1,1-11.75,3.7A8.71,8.71,0,0,1,32.33,84.55Z"/><path class="cls-2" d="M73.4,279.36a7.27,7.27,0,1,1-2.81,9.9A7.27,7.27,0,0,1,73.4,279.36Z"/><path class="cls-1" d="M82.31,260.76a5,5,0,1,1-1.92,6.77A5,5,0,0,1,82.31,260.76Z"/><path class="cls-3" d="M59.72,251.86a8.71,8.71,0,1,1-3.37,11.86A8.72,8.72,0,0,1,59.72,251.86Z"/><path class="cls-2" d="M229.29,269.1a7.27,7.27,0,1,1-9.89-2.81A7.28,7.28,0,0,1,229.29,269.1Z"/><path class="cls-1" d="M247.9,278a5,5,0,1,1-6.78-1.92A5,5,0,0,1,247.9,278Z"/><path class="cls-3" d="M256.8,255.42A8.71,8.71,0,1,1,245,252.06,8.73,8.73,0,0,1,256.8,255.42Z"/></g></g></g></svg>