<svg width="40" height="40" viewBox="0 0 40 40" fill="none" xmlns="http://www.w3.org/2000/svg">
<g clip-path="url(#clip0_456_9084)">
<path d="M20 32C26.6274 32 32 26.6274 32 20C32 13.3726 26.6274 8 20 8C13.3726 8 8 13.3726 8 20C8 26.6274 13.3726 32 20 32Z" fill="#130E0B"/>
<path d="M16.4781 14.5625C16.9955 14.5625 17.4678 14.6086 17.895 14.6998C18.3222 14.791 18.687 14.9407 18.9913 15.1491C19.2957 15.3574 19.5318 15.6339 19.6998 15.9795C19.8678 16.3251 19.9513 16.7513 19.9513 17.2591C19.9513 17.8073 19.8265 18.2642 19.5779 18.63C19.3293 18.9958 18.9606 19.2953 18.4739 19.5286C19.144 19.7215 19.6441 20.0594 19.9744 20.5413C20.3046 21.0233 20.4697 21.605 20.4697 22.2857C20.4697 22.8338 20.3632 23.309 20.15 23.7103C19.9369 24.1116 19.6499 24.4389 19.2889 24.6924C18.928 24.9468 18.5171 25.134 18.0553 25.2559C17.5907 25.3778 17.1117 25.4392 16.6317 25.4383H11.3604V14.5625H16.4781ZM16.1738 18.9641C16.6 18.9641 16.9504 18.8623 17.225 18.6598C17.4995 18.4562 17.6368 18.127 17.6358 17.67C17.6358 17.4166 17.5897 17.2082 17.4985 17.046C17.4073 16.8838 17.2854 16.7561 17.1328 16.6649C16.9802 16.5737 16.8054 16.5103 16.6077 16.4748C16.4042 16.4393 16.1978 16.421 15.9904 16.422H13.7527V18.966L16.1738 18.9641ZM16.311 23.5788C16.5366 23.5797 16.7613 23.5567 16.9811 23.5106C17.1942 23.4645 17.3824 23.3887 17.5446 23.2821C17.7069 23.1756 17.8365 23.0306 17.9334 22.8482C18.0294 22.6658 18.0784 22.4316 18.0784 22.1474C18.0784 21.5897 17.9209 21.1903 17.6061 20.9522C17.2912 20.7132 16.8746 20.5941 16.3571 20.5941H13.7527V23.5797L16.311 23.5788ZM23.4783 23.3503C23.8028 23.6652 24.2703 23.8226 24.8799 23.8226C25.3167 23.8226 25.6921 23.7132 26.007 23.4952C26.3218 23.2773 26.5148 23.046 26.5858 22.8021H28.4895C28.1852 23.7468 27.7177 24.4216 27.0879 24.8277C26.4582 25.2338 25.6969 25.4373 24.8031 25.4373C24.1839 25.4373 23.6252 25.3384 23.1279 25.1407C22.6307 24.9429 22.2092 24.6607 21.8636 24.2949C21.518 23.9292 21.2512 23.4933 21.064 22.9855C20.8768 22.4777 20.7827 21.9189 20.7827 21.3103C20.7827 20.7218 20.8787 20.1737 21.0716 19.6658C21.2646 19.158 21.5392 18.7193 21.8944 18.3487C22.2496 17.9782 22.6739 17.6863 23.1663 17.4732C23.6588 17.2601 24.2051 17.1535 24.8041 17.1535C25.4742 17.1535 26.0578 17.2831 26.5561 17.5423C27.0534 17.8015 27.4623 18.149 27.782 18.5858C28.1017 19.0226 28.333 19.5199 28.4751 20.0786C28.6172 20.6373 28.6681 21.221 28.6278 21.8306H22.9465C22.9763 22.5285 23.1539 23.0364 23.4783 23.3503ZM25.9234 19.2079C25.6643 18.9238 25.2707 18.7817 24.7427 18.7817C24.3971 18.7817 24.11 18.8402 23.8825 18.9564C23.654 19.0735 23.4716 19.2175 23.3343 19.3903C23.1971 19.5631 23.1011 19.7455 23.0454 19.9385C22.9897 20.1314 22.9561 20.3042 22.9465 20.4559H26.4649C26.3622 19.9087 26.1817 19.4921 25.9234 19.2079ZM22.576 15.1145H26.9718V16.3337H22.576V15.1145Z" fill="#F0EFEA"/>
</g>
<defs>
<clipPath id="clip0_456_9084">
<rect width="24" height="24" fill="white" transform="translate(8 8)"/>
</clipPath>
</defs>
</svg>
