<svg width="40" height="40" viewBox="0 0 40 40" fill="none" xmlns="http://www.w3.org/2000/svg">
<g clip-path="url(#clip0_456_9079)">
<path d="M16.0006 20C16.0006 17.7909 17.7909 15.9997 20 15.9997C22.209 15.9997 24.0003 17.7909 24.0003 20C24.0003 22.2091 22.209 24.0003 20 24.0003C17.7909 24.0003 16.0006 22.2091 16.0006 20ZM13.8381 20C13.8381 23.4032 16.5968 26.1619 20 26.1619C23.4032 26.1619 26.1618 23.4032 26.1618 20C26.1618 16.5968 23.4032 13.8381 20 13.8381C16.5968 13.8381 13.8381 16.5968 13.8381 20ZM24.9658 13.5938C24.9656 13.8786 25.05 14.1571 25.2081 14.3939C25.3663 14.6308 25.5911 14.8155 25.8542 14.9246C26.1172 15.0337 26.4068 15.0623 26.6861 15.0068C26.9655 14.9514 27.2221 14.8143 27.4236 14.613C27.625 14.4117 27.7623 14.1552 27.818 13.8759C27.8736 13.5966 27.8452 13.307 27.7364 13.0439C27.6275 12.7807 27.443 12.5557 27.2063 12.3974C26.9695 12.2391 26.6911 12.1545 26.4063 12.1544H26.4058C26.024 12.1546 25.6579 12.3063 25.3879 12.5762C25.1179 12.846 24.9661 13.2121 24.9658 13.5938ZM15.152 29.7677C13.982 29.7144 13.3461 29.5196 12.9235 29.3549C12.3633 29.1368 11.9635 28.877 11.5433 28.4573C11.123 28.0376 10.8628 27.6382 10.6457 27.078C10.4809 26.6556 10.286 26.0195 10.2329 24.8495C10.1747 23.5846 10.1631 23.2047 10.1631 20.0001C10.1631 16.7955 10.1756 16.4166 10.2329 15.1507C10.2861 13.9807 10.4825 13.3459 10.6457 12.9222C10.8638 12.362 11.1235 11.9622 11.5433 11.5419C11.963 11.1216 12.3623 10.8615 12.9235 10.6443C13.3459 10.4796 13.982 10.2847 15.152 10.2315C16.4169 10.1733 16.7968 10.1617 20 10.1617C23.2031 10.1617 23.5835 10.1743 24.8494 10.2315C26.0194 10.2848 26.6542 10.4811 27.0778 10.6443C27.6381 10.8615 28.0378 11.1222 28.4581 11.5419C28.8784 11.9616 29.1376 12.362 29.3557 12.9222C29.5205 13.3446 29.7153 13.9807 29.7685 15.1507C29.8267 16.4166 29.8383 16.7955 29.8383 20.0001C29.8383 23.2047 29.8267 23.5836 29.7685 24.8495C29.7153 26.0195 29.5194 26.6554 29.3557 27.078C29.1376 27.6382 28.8778 28.038 28.4581 28.4573C28.0384 28.8766 27.6381 29.1368 27.0778 29.3549C26.6554 29.5196 26.0194 29.7145 24.8494 29.7677C23.5845 29.8259 23.2045 29.8375 20 29.8375C16.7954 29.8375 16.4165 29.8259 15.152 29.7677ZM15.0526 8.07267C13.7752 8.13085 12.9022 8.33341 12.1399 8.63005C11.3504 8.93638 10.682 9.34736 10.0142 10.0142C9.3463 10.681 8.93638 11.3504 8.63005 12.1399C8.33341 12.9027 8.13085 13.7752 8.07267 15.0526C8.01354 16.3321 8 16.7412 8 20C8 23.2588 8.01354 23.6679 8.07267 24.9474C8.13085 26.2249 8.33341 27.0973 8.63005 27.8601C8.93638 28.6491 9.3464 29.3193 10.0142 29.9858C10.6819 30.6524 11.3504 31.0628 12.1399 31.37C12.9037 31.6666 13.7752 31.8692 15.0526 31.9273C16.3328 31.9855 16.7412 32 20 32C23.2588 32 23.6678 31.9865 24.9473 31.9273C26.2249 31.8692 27.0972 31.6666 27.8601 31.37C28.6491 31.0628 29.3179 30.6526 29.9858 29.9858C30.6536 29.319 31.0627 28.6491 31.3699 27.8601C31.6665 27.0973 31.8701 26.2248 31.9273 24.9474C31.9855 23.6669 31.999 23.2588 31.999 20C31.999 16.7412 31.9855 16.3321 31.9273 15.0526C31.8691 13.7751 31.6665 12.9022 31.3699 12.1399C31.0627 11.3509 30.6526 10.682 29.9858 10.0142C29.319 9.3463 28.6491 8.93638 27.861 8.63005C27.0972 8.33341 26.2248 8.12989 24.9483 8.07267C23.6688 8.0145 23.2597 8 20.0009 8C16.7421 8 16.3328 8.01354 15.0526 8.07267Z" fill="#130E0B"/>
<path d="M16.0006 20C16.0006 17.7909 17.7909 15.9997 20 15.9997C22.209 15.9997 24.0003 17.7909 24.0003 20C24.0003 22.2091 22.209 24.0003 20 24.0003C17.7909 24.0003 16.0006 22.2091 16.0006 20ZM13.8381 20C13.8381 23.4032 16.5968 26.1619 20 26.1619C23.4032 26.1619 26.1618 23.4032 26.1618 20C26.1618 16.5968 23.4032 13.8381 20 13.8381C16.5968 13.8381 13.8381 16.5968 13.8381 20ZM24.9658 13.5938C24.9656 13.8786 25.05 14.1571 25.2081 14.3939C25.3663 14.6308 25.5911 14.8155 25.8542 14.9246C26.1172 15.0337 26.4068 15.0623 26.6861 15.0068C26.9655 14.9514 27.2221 14.8143 27.4236 14.613C27.625 14.4117 27.7623 14.1552 27.818 13.8759C27.8736 13.5966 27.8452 13.307 27.7364 13.0439C27.6275 12.7807 27.443 12.5557 27.2063 12.3974C26.9695 12.2391 26.6911 12.1545 26.4063 12.1544H26.4058C26.024 12.1546 25.6579 12.3063 25.3879 12.5762C25.1179 12.846 24.9661 13.2121 24.9658 13.5938ZM15.152 29.7677C13.982 29.7144 13.3461 29.5196 12.9235 29.3549C12.3633 29.1368 11.9635 28.877 11.5433 28.4573C11.123 28.0376 10.8628 27.6382 10.6457 27.078C10.4809 26.6556 10.286 26.0195 10.2329 24.8495C10.1747 23.5846 10.1631 23.2047 10.1631 20.0001C10.1631 16.7955 10.1756 16.4166 10.2329 15.1507C10.2861 13.9807 10.4825 13.3459 10.6457 12.9222C10.8638 12.362 11.1235 11.9622 11.5433 11.5419C11.963 11.1216 12.3623 10.8615 12.9235 10.6443C13.3459 10.4796 13.982 10.2847 15.152 10.2315C16.4169 10.1733 16.7968 10.1617 20 10.1617C23.2031 10.1617 23.5835 10.1743 24.8494 10.2315C26.0194 10.2848 26.6542 10.4811 27.0778 10.6443C27.6381 10.8615 28.0378 11.1222 28.4581 11.5419C28.8784 11.9616 29.1376 12.362 29.3557 12.9222C29.5205 13.3446 29.7153 13.9807 29.7685 15.1507C29.8267 16.4166 29.8383 16.7955 29.8383 20.0001C29.8383 23.2047 29.8267 23.5836 29.7685 24.8495C29.7153 26.0195 29.5194 26.6554 29.3557 27.078C29.1376 27.6382 28.8778 28.038 28.4581 28.4573C28.0384 28.8766 27.6381 29.1368 27.0778 29.3549C26.6554 29.5196 26.0194 29.7145 24.8494 29.7677C23.5845 29.8259 23.2045 29.8375 20 29.8375C16.7954 29.8375 16.4165 29.8259 15.152 29.7677ZM15.0526 8.07267C13.7752 8.13085 12.9022 8.33341 12.1399 8.63005C11.3504 8.93638 10.682 9.34736 10.0142 10.0142C9.3463 10.681 8.93638 11.3504 8.63005 12.1399C8.33341 12.9027 8.13085 13.7752 8.07267 15.0526C8.01354 16.3321 8 16.7412 8 20C8 23.2588 8.01354 23.6679 8.07267 24.9474C8.13085 26.2249 8.33341 27.0973 8.63005 27.8601C8.93638 28.6491 9.3464 29.3193 10.0142 29.9858C10.6819 30.6524 11.3504 31.0628 12.1399 31.37C12.9037 31.6666 13.7752 31.8692 15.0526 31.9273C16.3328 31.9855 16.7412 32 20 32C23.2588 32 23.6678 31.9865 24.9473 31.9273C26.2249 31.8692 27.0972 31.6666 27.8601 31.37C28.6491 31.0628 29.3179 30.6526 29.9858 29.9858C30.6536 29.319 31.0627 28.6491 31.3699 27.8601C31.6665 27.0973 31.8701 26.2248 31.9273 24.9474C31.9855 23.6669 31.999 23.2588 31.999 20C31.999 16.7412 31.9855 16.3321 31.9273 15.0526C31.8691 13.7751 31.6665 12.9022 31.3699 12.1399C31.0627 11.3509 30.6526 10.682 29.9858 10.0142C29.319 9.3463 28.6491 8.93638 27.861 8.63005C27.0972 8.33341 26.2248 8.12989 24.9483 8.07267C23.6688 8.0145 23.2597 8 20.0009 8C16.7421 8 16.3328 8.01354 15.0526 8.07267Z" fill="#130E0B"/>
</g>
<defs>
<clipPath id="clip0_456_9079">
<rect width="24" height="24" fill="white" transform="translate(8 8)"/>
</clipPath>
</defs>
</svg>
