<svg width="40" height="40" viewBox="0 0 40 40" fill="none" xmlns="http://www.w3.org/2000/svg">
<g clip-path="url(#clip0_456_9075)">
<path d="M20 8C13.3725 8 8 13.3725 8 19.9999C8 26.6273 13.3725 31.9998 20 31.9998C26.6275 31.9998 32.0001 26.6273 32.0001 19.9999C32 13.3725 26.6274 8 20 8ZM16.7984 25.8013H14.1637V17.2893H16.7984V25.8013ZM15.4685 16.1746C14.608 16.1746 13.9104 15.4714 13.9104 14.604C13.9104 13.7366 14.6081 13.0334 15.4685 13.0334C16.3288 13.0334 17.0264 13.7366 17.0264 14.604C17.0265 15.4714 16.3289 16.1746 15.4685 16.1746ZM26.672 25.8013H24.0501V21.3332C24.0501 20.1078 23.5846 19.4237 22.6155 19.4237C21.5609 19.4237 21.01 20.1362 21.01 21.3332V25.8013H18.483V17.2893H21.01V18.4358C21.01 18.4358 21.7701 17.0297 23.575 17.0297C25.38 17.0297 26.672 18.1318 26.672 20.4117L26.672 25.8013Z" fill="#130E0B"/>
</g>
<defs>
<clipPath id="clip0_456_9075">
<rect width="24" height="24" fill="white" transform="translate(8 8)"/>
</clipPath>
</defs>
</svg>
