<svg width="120" height="120" viewBox="0 0 120 120" fill="none" xmlns="http://www.w3.org/2000/svg">
<path d="M30.7229 91.9016C30.8417 90.9772 30.2465 90.1097 29.3392 89.8964C22.2229 88.2236 16.9229 81.8365 16.9229 74.2097C16.9229 68.2312 20.179 63.0175 25.0128 60.2326L24.9142 60.0619C24.1278 58.6911 23.6781 57.1039 23.6781 55.4109C23.6781 52.8713 24.6858 50.5699 26.3259 48.8841C27.2542 47.9293 27.4009 46.4431 26.665 45.3321C25.0345 42.8671 24.1182 39.8851 24.2216 36.6818C24.4597 29.2676 30.2506 23.1063 37.6336 22.4113C38.7124 22.3103 39.7672 22.3278 40.7909 22.449C41.3464 22.5149 41.8063 22.0388 41.7315 21.4844C41.5903 20.4388 41.5992 19.3458 41.7865 18.2246C42.5825 13.4582 46.5169 9.75711 51.3242 9.26171C54.1548 8.97072 56.7929 9.77154 58.8683 11.2938C59.7244 11.9191 60.9028 11.9191 61.759 11.2938C63.8344 9.77154 66.4725 8.97072 69.303 9.26171C74.1104 9.75711 78.0447 13.4582 78.8407 18.2246C79.0281 19.3458 79.037 20.4391 78.8958 21.4844C78.821 22.039 79.2808 22.5149 79.8364 22.449C80.8601 22.3278 81.9149 22.3105 82.9937 22.4113C90.3766 23.1063 96.1676 29.2676 96.4057 36.6818C96.5091 39.8851 95.5928 42.8671 93.9623 45.3321C93.2264 46.4431 93.3731 47.9293 94.3014 48.8841C95.9415 50.5699 96.9492 52.8713 96.9492 55.4109C96.9492 57.1039 96.4994 58.6911 95.7131 60.0619L95.5447 60.1894L95.6145 60.2326C100.448 63.0175 103.704 68.2312 103.704 74.2097C103.704 81.8365 98.4041 88.2238 91.2881 89.8964C90.3807 90.1097 89.7855 90.9769 89.9043 91.9016C90.0532 93.0617 90.1999 94.5583 90.1265 95.5433C89.5277 103.549 83.0081 109.956 74.9927 110.413C69.3942 110.73 64.3704 108.188 61.2489 104.114C60.7775 103.496 59.8493 103.496 59.3779 104.114C56.2564 108.188 51.2326 110.73 45.6341 110.413C37.6187 109.956 31.0991 103.549 30.5003 95.5433C30.4274 94.5583 30.5738 93.062 30.7229 91.9016Z" fill="#FDB4BA"/>
<path d="M45.2998 95.5433C45.2265 94.5583 45.3732 93.0617 45.522 91.9016C45.6408 90.9772 45.0456 90.1097 44.1383 89.8964C37.022 88.2236 31.7219 81.8365 31.7219 74.2097C31.7219 68.2312 34.9781 63.0175 39.8119 60.2326L39.7133 60.0619C38.9269 58.6911 38.4772 57.1039 38.4772 55.4109C38.4772 52.8713 39.4848 50.5699 41.125 48.8841C42.0532 47.9293 42.1999 46.4431 41.4641 45.3321C39.8336 42.8671 38.9173 39.8851 39.0207 36.6818C39.2588 29.2676 45.0497 23.1063 52.4327 22.4113C53.5115 22.3103 54.5663 22.3278 55.59 22.449C56.1455 22.5149 56.6053 22.0388 56.5306 21.4844C56.3894 20.4388 56.3983 19.3458 56.5856 18.2246C57.0166 15.6445 58.3705 13.3788 60.2814 11.7625C59.7843 11.7556 59.2868 11.5995 58.8683 11.2938C56.7929 9.77154 54.1548 8.97072 51.3243 9.26171C46.5169 9.75711 42.5826 13.4582 41.7865 18.2246C41.5992 19.3458 41.5903 20.4391 41.7315 21.4844C41.8063 22.039 41.3465 22.5149 40.7909 22.449C39.7672 22.3278 38.7124 22.3105 37.6336 22.4113C30.2506 23.1063 24.4597 29.2676 24.2216 36.6818C24.1182 39.8851 25.0345 42.8671 26.665 45.3321C27.4009 46.4431 27.2542 47.9293 26.3259 48.8841C24.6858 50.5699 23.6781 52.8713 23.6781 55.4109C23.6781 57.1039 24.1278 58.6911 24.9142 60.0619L25.0128 60.2326C20.179 63.0175 16.9229 68.2312 16.9229 74.2097C16.9229 81.8365 22.2232 88.2236 29.3392 89.8964C30.2465 90.1097 30.8417 90.9769 30.7229 91.9016C30.5741 93.0617 30.4274 94.5583 30.5007 95.5433C31.0996 103.549 37.6191 109.956 45.6346 110.413C48.6548 110.584 51.5099 109.922 53.9872 108.637C49.1567 106.128 45.726 101.242 45.2998 95.5433Z" fill="#FE99A0"/>
<path d="M60.1933 62.5615C64.9333 62.5615 69.2372 59.7589 71.1585 55.4215C71.562 54.5107 71.1506 53.4454 70.2398 53.0418C69.3294 52.6383 68.2638 53.0498 67.8602 53.9605C66.5166 56.994 63.5072 58.9542 60.1933 58.9542C56.8794 58.9542 53.8699 56.9942 52.5265 53.9605C52.1232 53.0498 51.0574 52.6381 50.1469 53.0418C49.2362 53.4451 48.8247 54.5105 49.2283 55.4215C51.149 59.7589 55.4533 62.5615 60.1933 62.5615Z" fill="#FE99A0"/>
<path d="M74.7635 45.6786C75.7598 45.6786 76.5671 44.871 76.5671 43.8749C76.5671 42.8788 75.7598 42.0713 74.7635 42.0713H70.1476C65.7195 42.0713 62.117 38.4688 62.117 34.0407V11.043C61.996 11.1245 61.8763 11.2075 61.7587 11.2938C60.9025 11.9191 59.7242 11.9191 58.868 11.2938C58.7504 11.2077 58.6307 11.1245 58.5097 11.043V34.0407C58.5097 38.4688 54.9072 42.0713 50.4791 42.0713H45.8632C44.8671 42.0713 44.0596 42.8788 44.0596 43.8749C44.0596 44.871 44.8671 45.6786 45.8632 45.6786H50.4791C53.591 45.6786 56.4194 44.4485 58.5097 42.452V53.0774C58.5097 54.0735 59.3173 54.8811 60.3134 54.8811C61.3097 54.8811 62.117 54.0735 62.117 53.0774V42.452C64.2073 44.4485 67.0354 45.6786 70.1476 45.6786H74.7635Z" fill="#FE99A0"/>
<path d="M70.0773 83.4107C67.7676 83.4107 65.5467 82.4356 63.9836 80.7353C62.7023 79.3415 61.9964 77.5311 61.9964 75.6377V74.4242C61.9964 72.4602 62.7545 70.607 64.131 69.2062C64.8291 68.4955 64.819 67.3537 64.1084 66.6556C63.3982 65.9577 62.2559 65.9678 61.558 66.6782C61.0436 67.2017 60.5877 67.768 60.1928 68.3685C59.7981 67.768 59.3422 67.2017 58.8278 66.6782C58.1301 65.968 56.9881 65.9574 56.2772 66.6556C55.5665 67.3537 55.5564 68.4958 56.2546 69.2062C57.6311 70.6072 58.3891 72.4604 58.3891 74.4242V75.6377C58.3891 77.5311 57.6833 79.3415 56.4022 80.7351C54.8391 82.4353 52.6179 83.4105 50.3085 83.4105C49.3124 83.4105 48.5049 84.2181 48.5049 85.2142C48.5049 86.2102 49.3124 87.0178 50.3085 87.0178C53.3088 87.0178 56.2026 85.8685 58.3894 83.8419V93.4828C57.1059 95.0777 55.1664 96.0173 53.1001 96.0173H52.6292C51.6331 96.0173 50.8256 96.8248 50.8256 97.8209C50.8256 98.817 51.6331 99.6246 52.6292 99.6246H53.1001C54.9898 99.6246 56.8101 99.1097 58.3894 98.1766V105.283C58.7366 104.909 59.0671 104.519 59.3778 104.114C59.8491 103.496 60.7774 103.496 61.2488 104.114C61.4868 104.424 61.7372 104.725 61.9967 105.017V98.1766C63.576 99.1097 65.396 99.6246 67.2857 99.6246H67.7566C68.7529 99.6246 69.5602 98.817 69.5602 97.8209C69.5602 96.8248 68.7529 96.0173 67.7566 96.0173H67.2857C65.2194 96.0173 63.2799 95.0777 61.9967 93.4828V83.8417C64.1834 85.868 67.077 87.0173 70.0775 87.0173C71.0739 87.0173 71.8812 86.2098 71.8812 85.2137C71.8812 84.2176 71.0734 83.4107 70.0773 83.4107Z" fill="#FE99A0"/>
<path d="M87.8576 69.4258C83.7797 69.4258 80.4619 72.7435 80.4619 76.8215V78.5301C80.4619 79.5262 81.2692 80.3338 82.2656 80.3338C83.2619 80.3338 84.0692 79.5262 84.0692 78.5301V76.8215C84.0692 74.7326 85.7685 73.0331 87.8576 73.0331C88.8539 73.0331 89.6612 72.2255 89.6612 71.2294C89.6612 70.2333 88.8539 69.4258 87.8576 69.4258Z" fill="#FE99A0"/>
<path d="M32.7685 69.4258C31.7724 69.4258 30.9648 70.2333 30.9648 71.2294C30.9648 72.2255 31.7724 73.0331 32.7685 73.0331C34.8576 73.0331 36.5569 74.7326 36.5569 76.8215V78.5301C36.5569 79.5262 37.3644 80.3338 38.3605 80.3338C39.3566 80.3338 40.1642 79.5262 40.1642 78.5301V76.8215C40.1642 72.7435 36.8464 69.4258 32.7685 69.4258Z" fill="#FE99A0"/>
<path d="M82.148 34.9762C81.8464 34.9762 81.541 34.9005 81.2601 34.7411C80.3934 34.2497 80.0894 33.149 80.5807 32.2823L94.6836 7.4119C95.0039 6.84699 95.6032 6.49805 96.2525 6.49805H115.215C116.211 6.49805 117.019 7.3056 117.019 8.3017C117.019 9.29779 116.211 10.1053 115.215 10.1053H97.3034L83.7191 34.0619C83.3867 34.6475 82.7764 34.9762 82.148 34.9762Z" fill="#C8EFFE"/>
<path d="M114.568 13.7329C117.568 13.7329 120 11.3012 120 8.30151C120 5.30183 117.568 2.87012 114.568 2.87012C111.568 2.87012 109.137 5.30183 109.137 8.30151C109.137 11.3012 111.568 13.7329 114.568 13.7329Z" fill="#FD8087"/>
<path d="M26.4031 110.859H11.9951C10.999 110.859 10.1914 110.052 10.1914 109.056C10.1914 108.06 10.999 107.252 11.9951 107.252H25.6667L37.0985 96.0542C37.8099 95.3573 38.9522 95.3688 39.6491 96.0807C40.346 96.7923 40.3342 97.9343 39.6226 98.6313L27.6649 110.344C27.328 110.674 26.8749 110.859 26.4031 110.859Z" fill="#C8EFFE"/>
<path d="M24.7629 8.94763H1.80365C0.807554 8.94763 0 8.14008 0 7.14398C0 6.14789 0.807554 5.34033 1.80365 5.34033H24.7629C25.759 5.34033 26.5666 6.14789 26.5666 7.14398C26.5666 8.14008 25.759 8.94763 24.7629 8.94763Z" fill="#B5ADB6"/>
<path d="M24.7634 17.5043H12.3251C11.329 17.5043 10.5215 16.6967 10.5215 15.7006C10.5215 14.7045 11.329 13.897 12.3251 13.897H24.7634C25.7594 13.897 26.567 14.7045 26.567 15.7006C26.567 16.6967 25.7594 17.5043 24.7634 17.5043Z" fill="#B5ADB6"/>
<path d="M17.6077 26.0614H1.80365C0.807554 26.0614 0 25.2538 0 24.2577C0 23.2617 0.807554 22.4541 1.80365 22.4541H17.6077C18.6038 22.4541 19.4114 23.2617 19.4114 24.2577C19.4114 25.2538 18.6038 26.0614 17.6077 26.0614Z" fill="#B5ADB6"/>
<path d="M11.8613 34.618H1.80365C0.807554 34.618 0 33.8105 0 32.8144C0 31.8183 0.807554 31.0107 1.80365 31.0107H11.8613C12.8574 31.0107 13.6649 31.8183 13.6649 32.8144C13.6649 33.8105 12.8574 34.618 11.8613 34.618Z" fill="#B5ADB6"/>
<path d="M6.39286 17.5043H1.80365C0.807554 17.5043 0 16.6967 0 15.7006C0 14.7045 0.807554 13.897 1.80365 13.897H6.39286C7.38895 13.897 8.19651 14.7045 8.19651 15.7006C8.19651 16.6967 7.3892 17.5043 6.39286 17.5043Z" fill="#B5ADB6"/>
<path d="M19.5446 117.13H1.54275C0.815755 117.13 0.226562 116.541 0.226562 115.814V106.649C0.226562 105.922 0.815755 105.333 1.54275 105.333H19.5446C20.2716 105.333 20.8608 105.922 20.8608 106.649V115.814C20.8608 116.541 20.2716 117.13 19.5446 117.13Z" fill="#86E8D0"/>
</svg>
