<svg width="120" height="120" viewBox="0 0 120 120" fill="none" xmlns="http://www.w3.org/2000/svg">
<path d="M105.101 16.2501H14.7442C13.747 16.2501 12.9385 15.4416 12.9385 14.4444C12.9385 13.4472 13.747 12.6387 14.7442 12.6387H105.101C106.098 12.6387 106.906 13.4472 106.906 14.4444C106.906 15.4416 106.098 16.2501 105.101 16.2501Z" fill="#C8EFFE"/>
<path d="M107.84 33.0552C111.365 33.0552 114.223 35.913 114.223 39.4383V107.026H5.77637V39.4383C5.77637 35.913 8.63422 33.0552 12.1595 33.0552H107.84Z" fill="#70708C"/>
<path d="M36.4158 98.359C29.2702 98.359 23.4774 92.5663 23.4774 85.4207V39.4383C23.4774 35.913 26.3353 33.0552 29.8605 33.0552H12.1595C8.63422 33.0552 5.77637 35.913 5.77637 39.4383V107.026H114.223V98.359H36.4158Z" fill="#3D3D66"/>
<path d="M113.247 112.218H6.75338C3.02349 112.218 0 109.194 0 105.464V103.162C0 102.504 0.533048 101.971 1.19081 101.971H118.809C119.467 101.971 120 102.504 120 103.162V105.464C120 109.194 116.977 112.218 113.247 112.218Z" fill="#70708C"/>
<path d="M48.4365 71.2461L51.798 75.7298C53.0264 77.3675 54.9819 78.3454 57.0288 78.3454H63.2797C65.4461 78.3454 67.4673 77.276 68.6865 75.4835L71.6169 71.1739L83.3735 55.1952C85.1094 52.8309 85.1686 49.6131 83.5223 47.1903L73.9289 33.0552H46.0712L36.4798 47.1877C34.8315 49.6129 34.8905 52.8307 36.6295 55.199L48.4365 71.2461Z" fill="#3D3D66"/>
<path d="M107 41.4783V93.5479C107 94.2107 106.463 94.7479 105.8 94.7479H14.199C13.5362 94.7479 12.999 94.2107 12.999 93.5479V41.4783C12.999 40.8155 13.5362 40.2783 14.199 40.2783H105.8C106.463 40.2786 107 40.8157 107 41.4783Z" fill="#C8EFFE"/>
<path d="M14.199 94.7477H27.4537C25.0042 92.3935 23.4772 89.0864 23.4772 85.4208V40.2783H14.199C13.5364 40.2783 12.999 40.8155 12.999 41.4783V93.5479C12.999 94.2105 13.5362 94.7477 14.199 94.7477Z" fill="#99E6FC"/>
<path d="M64.3308 21.1067H55.668C54.3806 21.1067 53.3369 20.063 53.3369 18.7757V10.1128C53.3369 8.82544 54.3806 7.78174 55.668 7.78174H64.3308C65.6182 7.78174 66.6619 8.82544 66.6619 10.1128V18.7757C66.6619 20.063 65.6182 21.1067 64.3308 21.1067Z" fill="#FFAE14"/>
<path d="M104.436 19.2561C107.093 19.2561 109.248 17.1017 109.248 14.4442C109.248 11.7867 107.093 9.63232 104.436 9.63232C101.778 9.63232 99.624 11.7867 99.624 14.4442C99.624 17.1017 101.778 19.2561 104.436 19.2561Z" fill="#FFAE14"/>
<path d="M15.5638 19.2561C18.2214 19.2561 20.3757 17.1017 20.3757 14.4442C20.3757 11.7867 18.2214 9.63232 15.5638 9.63232C12.9063 9.63232 10.752 11.7867 10.752 14.4442C10.752 17.1017 12.9063 19.2561 15.5638 19.2561Z" fill="#FFAE14"/>
<path d="M79.5381 49.8948C80.0437 50.6387 80.0244 51.621 79.4923 52.3457L67.6853 68.3925L64.7047 72.7763C64.384 73.248 63.8505 73.5304 63.2799 73.5304H57.0289C56.4865 73.5304 55.9759 73.275 55.6503 72.8411L52.3151 68.3925L40.5081 52.3457C39.976 51.621 39.9567 50.6387 40.4623 49.8948L58.5746 23.2075C59.2582 22.2004 60.7422 22.2004 61.4258 23.2075L79.5381 49.8948Z" fill="#F3F0F3"/>
<path d="M61.8955 68.3923L50.0885 52.3455C49.5564 51.6208 49.5372 50.6385 50.0428 49.8945L64.7904 28.1648L61.4258 23.207C60.7422 22.1999 59.2582 22.1999 58.5746 23.207L40.4623 49.8943C39.9567 50.6382 39.976 51.6206 40.5081 52.3452L52.3151 68.3921L55.6503 72.8406C55.9759 73.2745 56.4865 73.5299 57.029 73.5299H63.2799C63.8505 73.5299 64.3838 73.2475 64.7047 72.7759L64.9317 72.4417L61.8955 68.3923Z" fill="#E5E1E5"/>
<path d="M60.0002 54.7109C63.3356 54.7109 66.0395 52.007 66.0395 48.6716C66.0395 45.3362 63.3356 42.6323 60.0002 42.6323C56.6648 42.6323 53.9609 45.3362 53.9609 48.6716C53.9609 52.007 56.6648 54.7109 60.0002 54.7109Z" fill="#E5E1E5"/>
<path d="M61.4256 23.207C60.7421 22.1999 59.258 22.1999 58.5745 23.207L58.1943 23.767V48.6714C58.1943 49.6687 59.0028 50.4772 60.0001 50.4772C60.9975 50.4772 61.8058 49.6687 61.8058 48.6714V23.7672L61.4256 23.207Z" fill="#E5E1E5"/>
<path d="M69.8257 77.7346L71.0606 79.6121C72.4156 81.672 73.1377 84.0838 73.1377 86.5497V94.7476H46.8633V86.5497C46.8633 84.084 47.5853 81.6723 48.9403 79.6121L50.1752 77.7346L53.9073 72.4287H66.8516L69.8257 77.7346Z" fill="#76D6C6"/>
<path d="M72.4575 82.4658C72.1151 81.4648 71.6473 80.5053 71.0599 79.6121L69.825 77.7346L66.8509 72.4287H61.4905H57.6388H53.9063L50.1742 77.7346L48.9394 79.6121C47.5844 81.672 46.8623 84.084 46.8623 86.5497V94.7476H54.4466V86.5497C54.4466 86.5359 54.4466 86.5222 54.4466 86.5087C54.4538 84.3106 56.28 82.5499 58.4784 82.5499H71.3298C71.7131 82.5499 72.0894 82.5207 72.4575 82.4658Z" fill="#76D6C6"/>
<path d="M71.33 68.3921H48.6695C47.1235 68.3921 45.8701 69.6453 45.8701 71.1914V74.9355C45.8701 76.4815 47.1233 77.7349 48.6695 77.7349H71.33C72.876 77.7349 74.1294 76.4817 74.1294 74.9355V71.1914C74.1294 69.6453 72.8762 68.3921 71.33 68.3921Z" fill="#76D6C6"/>
<path d="M53.8064 74.7123C52.2604 74.7123 51.007 73.4592 51.007 71.913V68.3921H48.6695C47.1235 68.3921 45.8701 69.6453 45.8701 71.1914V74.9355C45.8701 76.4815 47.1233 77.7349 48.6695 77.7349H71.33C72.876 77.7349 74.1294 76.4817 74.1294 74.9355V74.7123H53.8064Z" fill="#439F90"/>
<path d="M58.5745 23.207L58.1943 23.767V37.8832L61.8058 32.5618V23.7668L61.4256 23.2068C60.7423 22.1999 59.258 22.1999 58.5745 23.207Z" fill="#70708C"/>
</svg>
