<svg width="120" height="120" viewBox="0 0 120 120" fill="none" xmlns="http://www.w3.org/2000/svg">
<g clip-path="url(#clip0_456_9211)">
<path d="M108.916 35.4761H6.50582C6.50582 35.4761 7.48075 74.1309 7.23298 93.3547C2.95762 95.5443 0.00701957 99.9386 0.00195312 104.988C0.00195312 105.234 0.00677831 105.48 0.0212539 105.728C0.404856 112.628 6.12029 118.103 13.1144 118.103H108.916C109.811 118.103 110.535 117.379 110.535 116.484V37.0949C110.535 36.1999 109.811 35.4761 108.916 35.4761Z" fill="#FAFAFA"/>
<path d="M75.0577 20.4748C75.0649 23.7439 74.2302 26.8151 72.7585 29.4859L65.5617 42.1834C65.429 42.4174 65.3591 42.6828 65.3591 42.953V52.1015H47.518V42.953C47.518 42.6828 47.448 42.4174 47.3129 42.1834L40.1161 29.4859H40.1185C38.6517 26.8248 37.8193 23.768 37.8193 20.5183C37.8193 10.1924 46.2224 1.83031 56.5652 1.89787C66.7391 1.96542 75.036 10.3009 75.0577 20.4748Z" fill="#FEF0AE"/>
<path d="M55.4093 42.1831L48.2125 29.4856H48.215C46.7481 26.8245 45.9158 23.7678 45.9158 20.518C45.9158 11.6271 52.1523 4.19297 60.4861 2.34154C59.2229 2.05903 57.9088 1.90655 56.5652 1.89787C46.2224 1.83031 37.8193 10.1924 37.8193 20.5183C37.8193 23.768 38.6517 26.8248 40.1185 29.4859H40.1161L47.3129 42.1834C47.448 42.4174 47.518 42.6828 47.518 42.953V52.1015H55.6144V42.953C55.6144 42.6825 55.5444 42.4171 55.4093 42.1831Z" fill="#FEE97D"/>
<path d="M49.9736 50.8882V56.0627C49.9736 59.6329 52.8678 62.5273 56.4382 62.5273C60.0083 62.5273 62.9027 59.6331 62.9027 56.0627V50.8882H49.9736Z" fill="#CBC4CC"/>
<path d="M55.2688 56.0627V50.8882H49.9736V56.0627C49.9736 59.6329 52.8678 62.5273 56.4382 62.5273C57.382 62.5273 58.2814 62.3236 59.0896 61.9603C56.8399 60.9485 55.2688 58.6891 55.2688 56.0627Z" fill="#B5ADB6"/>
<path d="M56.438 53.1409C55.4387 53.1409 54.6285 52.3307 54.6285 51.3314V31.2447L45.4296 22.1661C44.8973 21.6411 44.6033 20.9402 44.6006 20.1928C44.5982 19.4454 44.8879 18.7426 45.4165 18.2142L48.7124 14.9184C49.2386 14.3922 49.938 14.1027 50.6818 14.1027C51.4258 14.1027 52.1252 14.3925 52.6514 14.9186L53.2707 15.5377L54.8252 14.4337C55.7902 13.7485 57.0865 13.7488 58.0508 14.4337L59.605 15.5377L60.2243 14.9184C60.7505 14.3922 61.4502 14.1027 62.194 14.1027C62.938 14.1027 63.6374 14.3925 64.1634 14.9186L67.4592 18.2145C67.9876 18.7426 68.2776 19.4454 68.2751 20.1926C68.2727 20.94 67.9786 21.6409 67.4464 22.1661L58.2472 31.2449V51.3317C58.2474 52.3307 57.4373 53.1409 56.438 53.1409ZM48.5688 20.1798L56.438 27.9459L64.3072 20.1798L62.194 18.0666L61.6661 18.5945C60.702 19.559 59.1951 19.6852 58.0836 18.8958L56.438 17.7269L54.7921 18.8958C53.6806 19.6852 52.174 19.5588 51.2099 18.5945L50.6818 18.0666L48.5688 20.1798Z" fill="#FFAE14"/>
<path d="M79.9775 8.70565C79.3502 8.70565 78.7403 8.37899 78.4059 7.79586C77.9089 6.92902 78.2091 5.82332 79.0757 5.32633L81.2036 4.10628C82.0711 3.60904 83.1766 3.90917 83.6733 4.77602C84.1703 5.64286 83.8702 6.74855 83.0036 7.24555L80.8757 8.4656C80.592 8.62821 80.2824 8.70565 79.9775 8.70565Z" fill="#FEE97D"/>
<path d="M84.1551 25.8922C83.915 25.8922 83.6709 25.8442 83.4363 25.7426L80.9058 24.6461C79.9888 24.2487 79.5678 23.1833 79.9651 22.2663C80.3625 21.3495 81.4279 20.928 82.3449 21.3254L84.8755 22.4219C85.7925 22.8193 86.2135 23.8847 85.8161 24.8017C85.5203 25.4842 84.8545 25.8922 84.1551 25.8922Z" fill="#FEE97D"/>
<path d="M33.1531 8.70591C32.8479 8.70591 32.5386 8.62871 32.2549 8.46586L30.1267 7.24581C29.2596 6.74881 28.9598 5.64288 29.4568 4.77604C29.954 3.90895 31.0597 3.6093 31.9265 4.10606L34.0547 5.32611C34.9218 5.8231 35.2216 6.92903 34.7247 7.79588C34.3903 8.37924 33.7801 8.70591 33.1531 8.70591Z" fill="#FEE97D"/>
<path d="M28.975 25.8922C28.2756 25.8922 27.6095 25.4845 27.3137 24.8017C26.9164 23.8849 27.3376 22.8193 28.2546 22.4219L30.7852 21.3254C31.7022 20.9281 32.7674 21.3493 33.165 22.2663C33.5623 23.1831 33.1411 24.2488 32.2241 24.6461L29.6935 25.7426C29.4592 25.844 29.2151 25.8922 28.975 25.8922Z" fill="#FEE97D"/>
<path d="M110.535 82.7095L36.7066 83.5865L25.0055 89.9941C23.5739 90.7779 22.6846 92.279 22.6846 93.9119C22.6846 95.5447 23.5743 97.0456 25.005 97.8287L36.8354 104.307L110.535 105.117V82.7095Z" fill="#EFEDEF"/>
<path d="M98.1323 86.2856H39.3133L36.3525 91.2718V97.3206L39.3133 101.538H98.1323L102.018 99.0283V88.8087L98.1323 86.2856Z" fill="#D9B1EE"/>
<path d="M39.3133 95.5263L36.3525 91.3091V97.3206L39.3133 101.538H98.1323L102.018 99.0282V93.0165L98.1323 95.5263H39.3133Z" fill="#CB97E7"/>
<path d="M26.3036 85.2831C25.3043 85.2831 24.4941 84.473 24.4941 83.4737V81.6131C24.4941 75.9377 29.1114 71.3203 34.787 71.3203H90.6861C94.0632 71.3203 96.8107 68.5728 96.8107 65.1957C96.8107 61.8185 94.0632 59.071 90.6861 59.071H73.1521C72.1525 59.071 71.3426 58.2609 71.3426 57.2616C71.3426 56.2623 72.1525 55.4521 73.1521 55.4521H90.6861C96.0587 55.4521 100.43 59.823 100.43 65.1957C100.43 70.5683 96.0587 74.9391 90.6861 74.9391H34.787C31.1071 74.9391 28.113 77.9329 28.113 81.6131V83.4737C28.113 84.4732 27.3029 85.2831 26.3036 85.2831Z" fill="#76D6C6"/>
<path d="M39.313 86.2856V101.538L26.7434 94.6549C26.1571 94.3341 26.1571 93.4897 26.7434 93.1688L39.313 86.2856Z" fill="#CBC4CC"/>
<path d="M30.8878 90.8989L26.7434 93.1685C26.1571 93.4893 26.1571 94.3337 26.7434 94.6546L39.313 101.538V95.5128L30.8878 90.8989Z" fill="#B5ADB6"/>
<path d="M115.221 86.2856H105.904L101.123 89.3902V97.9238L105.904 101.538H115.221C117.86 101.538 120 99.3981 120 96.7587V91.065C120 88.4256 117.86 86.2856 115.221 86.2856Z" fill="#CBC4CC"/>
<path d="M115.221 95.581H105.904L101.123 91.9667V97.9234L105.904 101.538H115.221C117.86 101.538 120 99.3977 120 96.7583V91.0646C120 91.0202 119.995 90.9773 119.994 90.9331C119.923 93.5112 117.816 95.581 115.221 95.581Z" fill="#B5ADB6"/>
<path d="M98.1318 86.2856H105.903V101.538H98.1318V86.2856Z" fill="#FEE97D"/>
<path d="M98.1318 95.5811H105.903V101.538H98.1318V95.5811Z" fill="#FFAE14"/>
<path d="M20.3088 106.822C16.5495 106.822 13.161 105.24 10.7708 102.705C8.65473 100.46 10.2198 96.7214 13.304 96.7007C13.3238 96.7005 13.3438 96.7005 13.3636 96.7005H15.2262C18.46 96.7005 21.0815 94.0789 21.0815 90.8451V35.4761H6.50656C6.50656 35.4761 7.21321 93.3663 7.20283 93.3718C7.20283 93.3716 7.20283 93.3716 7.20283 93.3713C2.94436 95.5663 0.00799613 99.951 0.00292969 104.988C0.00292969 105.234 0.00775487 105.48 0.0222304 105.728C0.405833 112.628 6.12127 118.103 13.1154 118.103H108.917C109.811 118.103 110.536 117.378 110.536 116.484V106.822H20.3088Z" fill="#EFEDEF"/>
<path d="M16.2561 35.4761V90.8427C16.2561 91.4121 15.7953 91.8753 15.2259 91.8753H13.3634C6.04113 91.8753 0.00965038 97.7644 0.00241259 104.988L0 41.3073C0 34.043 5.88914 28.1562 13.151 28.1562H15.2259C15.7953 28.1562 16.2561 28.6171 16.2561 29.1888V35.4761Z" fill="#FAFAFA"/>
<path d="M65.0722 47.2764H47.8036C46.7611 47.2764 45.916 48.1215 45.916 49.164V52.8514C45.916 53.8939 46.7611 54.739 47.8036 54.739H65.0722C66.1147 54.739 66.9599 53.8939 66.9599 52.8514V49.164C66.9599 48.1215 66.1147 47.2764 65.0722 47.2764Z" fill="#B5ADB6"/>
<path d="M53.8933 51.634C52.2356 51.634 50.8917 50.2902 50.8917 48.6325V47.2764H47.8036C46.7611 47.2764 45.916 48.1215 45.916 49.164V52.8514C45.916 53.8939 46.7611 54.739 47.8036 54.739H65.0722C66.1147 54.739 66.9599 53.8939 66.9599 52.8514V51.6338H53.8933V51.634Z" fill="#A79BA7"/>
</g>
<defs>
<clipPath id="clip0_456_9211">
<rect width="120" height="120" fill="white"/>
</clipPath>
</defs>
</svg>
