<svg width="120" height="120" viewBox="0 0 120 120" fill="none" xmlns="http://www.w3.org/2000/svg">
<g clip-path="url(#clip0_456_9153)">
<path d="M32.3824 6.97421C30.1488 2.83859 25.8269 0.00726766 20.8795 0.00244141C20.6333 0.00244141 20.3872 0.00726766 20.1386 0.0217464C13.2395 0.405434 7.76172 6.12213 7.76172 13.1178V51.5565V119.87H67.5494V120H106.934C108.435 120 109.654 118.781 109.654 117.28V6.97421H32.3824Z" fill="#FAFAFA"/>
<path d="M35.0274 21.0859H109.654V16.2597H35.0276C34.4586 16.2597 33.9972 15.7983 33.9972 15.2293V13.3663C33.9972 6.88468 29.3804 1.4175 23.3105 0.240134C23.3107 0.239652 23.3107 0.238928 23.3109 0.238445C22.5226 0.085453 21.7101 0.00316534 20.8795 0.00244141C20.6333 0.00244141 20.3872 0.00726766 20.1386 0.0217464C13.2395 0.405434 7.76172 6.12213 7.76172 13.1178V119.87L106.934 120C108.436 120 109.654 118.782 109.654 117.28V109.865L65.5564 109.747C62.58 109.739 59.7342 108.525 57.6691 106.382L26.6584 74.1981C24.3242 71.7756 23.0202 68.5427 23.0202 65.1786V11.3224C23.0202 8.15157 27.4456 7.26813 28.5885 10.2259C28.9642 11.1984 29.171 12.258 29.171 13.3663V15.2293C29.171 18.4638 31.7931 21.0859 35.0274 21.0859Z" fill="#EFEDEF"/>
<path d="M59.8903 115.642C61.4637 117.276 60.3054 120 58.037 120H2.64368C1.22235 120 0.0712891 118.849 0.0712891 117.428V59.9372C0.0712891 57.6206 2.88982 56.484 4.49455 58.1515L59.8903 115.642ZM40.2475 109.865L10.2064 78.6848V109.865H40.2475Z" fill="#86E8D0"/>
<path d="M58.4125 114.108H8.43977C7.01844 114.108 5.86738 112.957 5.86738 111.536V59.5762L4.49455 58.1515C2.88982 56.484 0.0712891 57.6206 0.0712891 59.9372V117.428C0.0712891 118.849 1.22235 120 2.64368 120H58.037C60.3054 120 61.4637 117.276 59.8903 115.642L58.4125 114.108Z" fill="#76D6C6"/>
<path d="M119.929 13.154V15.2292C119.929 15.7987 119.468 16.2596 118.899 16.2596H109.654H35.028C34.4585 16.2596 33.9976 15.7987 33.9976 15.2292V13.3663C33.9976 6.04247 28.1048 0.00965251 20.8799 0.00241313V0H106.778C114.041 0 119.929 5.89044 119.929 13.154Z" fill="#FAFAFA"/>
<path d="M71.6424 37.5894L59.9581 34.9302C59.3861 34.7999 58.8746 35.3114 59.0049 35.8833L61.6641 47.5677H61.6665L66.4597 48.665L73.8376 41.2871L71.6424 37.5894Z" fill="#FAE2C0"/>
<path d="M118.153 83.9094L112 77.7559L107.95 76.8853L100.896 83.94L101.831 87.9251L107.984 94.0785C110.303 96.3976 114.061 96.3976 116.377 94.0785L118.153 92.3025C120.472 89.9856 120.472 86.2284 118.153 83.9094Z" fill="#F3F0F3"/>
<path d="M112.452 89.6102L106.299 83.4567L105.364 79.4717L100.896 83.9398L101.831 87.9249L107.984 94.0783C110.303 96.3974 114.061 96.3974 116.377 94.0783L118.153 92.3023C118.625 91.831 118.996 91.2984 119.275 90.7323C117.058 91.8281 114.3 91.4574 112.452 89.6102Z" fill="#E5E1E5"/>
<path d="M70.9279 44.1968L66.1347 43.0996H66.1323L64.5087 35.9659L59.9581 34.9302C59.3861 34.7999 58.8746 35.3114 59.0049 35.8833L61.6641 47.5677H61.6665L66.4597 48.665L73.8376 41.2871L70.9279 44.1968Z" fill="#FDDEB0"/>
<path d="M71.8914 37.6473L112 77.7559L101.831 87.9248L61.7225 47.8162L61.667 47.5677L71.6429 37.5918L71.8914 37.6473Z" fill="#FFAE14"/>
<path d="M106.298 83.4568L66.1897 43.3482L66.1342 43.0996L61.666 47.5678L61.7215 47.8163L101.83 87.9249L111.999 77.756L106.298 83.4568Z" fill="#EFA415"/>
<path d="M98.9981 46.4493C98.2559 46.4493 97.5597 45.9891 97.2945 45.2502C93.8094 35.5393 84.5319 29.0147 74.2091 29.0147C71.3799 29.0147 68.6046 29.4935 65.9603 30.438C65.0194 30.7741 63.9834 30.2838 63.647 29.3427C63.3107 28.4013 63.8012 27.3656 64.7426 27.0294C67.7788 25.9447 70.9636 25.395 74.2091 25.395C86.0553 25.395 96.7016 32.8827 100.701 44.0277C101.039 44.9684 100.55 46.0048 99.6092 46.3427C99.4072 46.4148 99.2009 46.4493 98.9981 46.4493Z" fill="#E2DEE2"/>
<path d="M58.9815 76.8273C58.6191 76.8273 58.2532 76.7187 57.9352 76.4928C50.5056 71.2175 46.0703 62.6347 46.0703 53.5343C46.0703 47.9641 47.6968 42.5778 50.7735 37.9571C51.3276 37.1256 52.4511 36.8999 53.2831 37.454C54.115 38.008 54.3403 39.1313 53.7863 39.9634C51.1065 43.9878 49.6898 48.6803 49.6898 53.5341C49.6898 61.4641 53.5556 68.9434 60.0307 73.5411C60.8456 74.1198 61.0372 75.2496 60.4586 76.0645C60.1058 76.5618 59.5479 76.8273 58.9815 76.8273Z" fill="#E2DEE2"/>
</g>
<defs>
<clipPath id="clip0_456_9153">
<rect width="120" height="120" fill="white"/>
</clipPath>
</defs>
</svg>
